<?xml version="1.0" encoding="UTF-8"?>
<svg xmlns="http://www.w3.org/2000/svg" version="1.1" width="150" height="150" viewBox="0 0 150 150"><rect x="0" y="0" width="150" height="150" fill="#ffffff"/><g transform="scale(3.659)"><g transform="translate(0,0)"><path fill-rule="evenodd" d="M8 0.25L8 0.75A0.25 0.25 0 0 0 8.25 1L8.75 1A0.25 0.25 0 0 0 9 0.75L9 0.25A0.25 0.25 0 0 0 8.75 0L8.25 0A0.25 0.25 0 0 0 8 0.25ZM11 0.25L11 0.75A0.25 0.25 0 0 0 11.25 1L12.75 1A0.25 0.25 0 0 0 13 0.75L13 0.25A0.25 0.25 0 0 0 12.75 0L11.25 0A0.25 0.25 0 0 0 11 0.25ZM16 0.25L16 0.75A0.25 0.25 0 0 0 16.25 1L19.75 1A0.25 0.25 0 0 1 20 1.25L20 3.75A0.25 0.25 0 0 1 19.75 4L19.25 4A0.25 0.25 0 0 0 19 4.25L19 5.75A0.25 0.25 0 0 1 18.75 6L18.25 6A0.25 0.25 0 0 0 18 6.25L18 6.75A0.25 0.25 0 0 1 17.75 7L17.25 7A0.25 0.25 0 0 1 17 6.75L17 5.25A0.25 0.25 0 0 1 17.25 5L17.75 5A0.25 0.25 0 0 0 18 4.75L18 3.25A0.25 0.25 0 0 0 17.75 3L17.25 3A0.25 0.25 0 0 1 17 2.75L17 2.25A0.25 0.25 0 0 0 16.75 2L15.25 2A0.25 0.25 0 0 1 15 1.75L15 1.25A0.25 0.25 0 0 0 14.75 1L14.25 1A0.25 0.25 0 0 0 14 1.25L14 1.75A0.25 0.25 0 0 1 13.75 2L11.25 2A0.25 0.25 0 0 0 11 2.25L11 2.75A0.25 0.25 0 0 1 10.75 3L9.25 3A0.25 0.25 0 0 1 9 2.75L9 2.25A0.25 0.25 0 0 0 8.75 2L8.25 2A0.25 0.25 0 0 0 8 2.25L8 4.75A0.25 0.25 0 0 0 8.25 5L8.75 5A0.25 0.25 0 0 1 9 5.25L9 5.75A0.25 0.25 0 0 1 8.75 6L8.25 6A0.25 0.25 0 0 0 8 6.25L8 6.75A0.25 0.25 0 0 0 8.25 7L8.75 7A0.25 0.25 0 0 0 9 6.75L9 6.25A0.25 0.25 0 0 1 9.25 6L9.75 6A0.25 0.25 0 0 1 10 6.25L10 6.75A0.25 0.25 0 0 0 10.25 7L10.75 7A0.25 0.25 0 0 1 11 7.25L11 7.75A0.25 0.25 0 0 0 11.25 8L12.75 8A0.25 0.25 0 0 0 13 7.75L13 5.25A0.25 0.25 0 0 1 13.25 5L13.75 5A0.25 0.25 0 0 1 14 5.25L14 6.75A0.25 0.25 0 0 0 14.25 7L14.75 7A0.25 0.25 0 0 1 15 7.25L15 7.75A0.25 0.25 0 0 1 14.75 8L14.25 8A0.25 0.25 0 0 0 14 8.25L14 8.75A0.25 0.25 0 0 1 13.75 9L13.25 9A0.25 0.25 0 0 0 13 9.25L13 10.75A0.25 0.25 0 0 0 13.25 11L13.75 11A0.25 0.25 0 0 0 14 10.75L14 9.25A0.25 0.25 0 0 1 14.25 9L15.75 9A0.25 0.25 0 0 1 16 9.25L16 9.75A0.25 0.25 0 0 0 16.25 10L17.75 10A0.25 0.25 0 0 1 18 10.25L18 11.75A0.25 0.25 0 0 1 17.75 12L17.25 12A0.25 0.25 0 0 1 17 11.75L17 11.25A0.25 0.25 0 0 0 16.75 11L16.25 11A0.25 0.25 0 0 0 16 11.25L16 11.75A0.25 0.25 0 0 1 15.75 12L14.25 12A0.25 0.25 0 0 0 14 12.25L14 12.75A0.25 0.25 0 0 1 13.75 13L13.25 13A0.25 0.25 0 0 0 13 13.25L13 13.75A0.25 0.25 0 0 1 12.75 14L12.25 14A0.25 0.25 0 0 1 12 13.75L12 12.25A0.25 0.25 0 0 0 11.75 12L10.25 12A0.25 0.25 0 0 1 10 11.75L10 10.25A0.25 0.25 0 0 1 10.25 10L10.75 10A0.25 0.25 0 0 1 11 10.25L11 10.75A0.25 0.25 0 0 0 11.25 11L11.75 11A0.25 0.25 0 0 0 12 10.75L12 10.25A0.25 0.25 0 0 0 11.75 10L11.25 10A0.25 0.25 0 0 1 11 9.75L11 9.25A0.25 0.25 0 0 0 10.75 9L9.25 9A0.25 0.25 0 0 1 9 8.75L9 8.25A0.25 0.25 0 0 0 8.75 8L8.25 8A0.25 0.25 0 0 0 8 8.25L8 8.75A0.25 0.25 0 0 1 7.75 9L7.25 9A0.25 0.25 0 0 1 7 8.75L7 8.25A0.25 0.25 0 0 0 6.75 8L6.25 8A0.25 0.25 0 0 0 6 8.25L6 8.75A0.25 0.25 0 0 0 6.25 9L6.75 9A0.25 0.25 0 0 1 7 9.25L7 9.75A0.25 0.25 0 0 1 6.75 10L6.25 10A0.25 0.25 0 0 0 6 10.25L6 10.75A0.25 0.25 0 0 1 5.75 11L5.25 11A0.25 0.25 0 0 1 5 10.75L5 9.25A0.25 0.25 0 0 0 4.75 9L4.25 9A0.25 0.25 0 0 1 4 8.75L4 8.25A0.25 0.25 0 0 0 3.75 8L0.25 8A0.25 0.25 0 0 0 0 8.25L0 9.75A0.25 0.25 0 0 0 0.25 10L0.75 10A0.25 0.25 0 0 0 1 9.75L1 9.25A0.25 0.25 0 0 1 1.25 9L2.75 9A0.25 0.25 0 0 1 3 9.25L3 9.75A0.25 0.25 0 0 1 2.75 10L2.25 10A0.25 0.25 0 0 0 2 10.25L2 10.75A0.25 0.25 0 0 1 1.75 11L1.25 11A0.25 0.25 0 0 0 1 11.25L1 11.75A0.25 0.25 0 0 1 0.75 12L0.25 12A0.25 0.25 0 0 0 0 12.25L0 13.75A0.25 0.25 0 0 0 0.25 14L0.75 14A0.25 0.25 0 0 0 1 13.75L1 13.25A0.25 0.25 0 0 1 1.25 13L3.75 13A0.25 0.25 0 0 1 4 13.25L4 13.75A0.25 0.25 0 0 1 3.75 14L3.25 14A0.25 0.25 0 0 0 3 14.25L3 14.75A0.25 0.25 0 0 0 3.25 15L3.75 15A0.25 0.25 0 0 0 4 14.75L4 14.25A0.25 0.25 0 0 1 4.25 14L4.75 14A0.25 0.25 0 0 1 5 14.25L5 15.75A0.25 0.25 0 0 1 4.75 16L4.25 16A0.25 0.25 0 0 0 4 16.25L4 17.75A0.25 0.25 0 0 1 3.75 18L1.25 18A0.25 0.25 0 0 0 1 18.25L1 18.75A0.25 0.25 0 0 0 1.25 19L2.75 19A0.25 0.25 0 0 1 3 19.25L3 19.75A0.25 0.25 0 0 1 2.75 20L2.25 20A0.25 0.25 0 0 0 2 20.25L2 20.75A0.25 0.25 0 0 1 1.75 21L1.25 21A0.25 0.25 0 0 1 1 20.75L1 20.25A0.25 0.25 0 0 0 0.75 20L0.25 20A0.25 0.25 0 0 0 0 20.25L0 20.75A0.25 0.25 0 0 0 0.25 21L0.75 21A0.25 0.25 0 0 1 1 21.25L1 22.75A0.25 0.25 0 0 0 1.25 23L1.75 23A0.25 0.25 0 0 1 2 23.25L2 23.75A0.25 0.25 0 0 1 1.75 24L1.25 24A0.25 0.25 0 0 0 1 24.25L1 25.75A0.25 0.25 0 0 0 1.25 26L1.75 26A0.25 0.25 0 0 1 2 26.25L2 26.75A0.25 0.25 0 0 1 1.75 27L0.25 27A0.25 0.25 0 0 0 0 27.25L0 27.75A0.25 0.25 0 0 0 0.25 28L0.75 28A0.25 0.25 0 0 1 1 28.25L1 28.75A0.25 0.25 0 0 0 1.25 29L1.75 29A0.25 0.25 0 0 0 2 28.75L2 28.25A0.25 0.25 0 0 1 2.25 28L2.75 28A0.25 0.25 0 0 0 3 27.75L3 26.25A0.25 0.25 0 0 1 3.25 26L3.75 26A0.25 0.25 0 0 1 4 26.25L4 26.75A0.25 0.25 0 0 0 4.25 27L4.75 27A0.25 0.25 0 0 1 5 27.25L5 27.75A0.25 0.25 0 0 1 4.75 28L4.25 28A0.25 0.25 0 0 0 4 28.25L4 28.75A0.25 0.25 0 0 0 4.25 29L4.75 29A0.25 0.25 0 0 0 5 28.75L5 28.25A0.25 0.25 0 0 1 5.25 28L5.75 28A0.25 0.25 0 0 1 6 28.25L6 28.75A0.25 0.25 0 0 0 6.25 29L7.75 29A0.25 0.25 0 0 1 8 29.25L8 29.75A0.25 0.25 0 0 1 7.75 30L4.25 30A0.25 0.25 0 0 0 4 30.25L4 30.75A0.25 0.25 0 0 1 3.75 31L3.25 31A0.25 0.25 0 0 0 3 31.25L3 31.75A0.25 0.25 0 0 1 2.75 32L1.25 32A0.25 0.25 0 0 0 1 32.25L1 32.75A0.25 0.25 0 0 0 1.25 33L3.75 33A0.25 0.25 0 0 0 4 32.75L4 31.25A0.25 0.25 0 0 1 4.25 31L7.75 31A0.25 0.25 0 0 1 8 31.25L8 31.75A0.25 0.25 0 0 1 7.75 32L6.25 32A0.25 0.25 0 0 0 6 32.25L6 32.75A0.25 0.25 0 0 0 6.25 33L7.75 33A0.25 0.25 0 0 1 8 33.25L8 33.75A0.25 0.25 0 0 0 8.25 34L10.75 34A0.25 0.25 0 0 1 11 34.25L11 35.75A0.25 0.25 0 0 1 10.75 36L10.25 36A0.25 0.25 0 0 1 10 35.75L10 35.25A0.25 0.25 0 0 0 9.75 35L9.25 35A0.25 0.25 0 0 0 9 35.25L9 36.75A0.25 0.25 0 0 1 8.75 37L8.25 37A0.25 0.25 0 0 0 8 37.25L8 40.75A0.25 0.25 0 0 0 8.25 41L8.75 41A0.25 0.25 0 0 0 9 40.75L9 39.25A0.25 0.25 0 0 1 9.25 39L9.75 39A0.25 0.25 0 0 1 10 39.25L10 39.75A0.25 0.25 0 0 0 10.25 40L11.75 40A0.25 0.25 0 0 0 12 39.75L12 38.25A0.25 0.25 0 0 1 12.25 38L12.75 38A0.25 0.25 0 0 1 13 38.25L13 38.75A0.25 0.25 0 0 0 13.25 39L13.75 39A0.25 0.25 0 0 1 14 39.25L14 39.75A0.25 0.25 0 0 1 13.75 40L13.25 40A0.25 0.25 0 0 0 13 40.25L13 40.75A0.25 0.25 0 0 0 13.25 41L13.75 41A0.25 0.25 0 0 0 14 40.75L14 40.25A0.25 0.25 0 0 1 14.25 40L14.75 40A0.25 0.25 0 0 1 15 40.25L15 40.75A0.25 0.25 0 0 0 15.25 41L16.75 41A0.25 0.25 0 0 0 17 40.75L17 39.25A0.25 0.25 0 0 0 16.75 39L15.25 39A0.25 0.25 0 0 1 15 38.75L15 38.25A0.25 0.25 0 0 1 15.25 38L15.75 38A0.25 0.25 0 0 0 16 37.75L16 37.25A0.25 0.25 0 0 1 16.25 37L16.75 37A0.25 0.25 0 0 1 17 37.25L17 37.75A0.25 0.25 0 0 0 17.25 38L18.75 38A0.25 0.25 0 0 1 19 38.25L19 38.75A0.25 0.25 0 0 0 19.25 39L19.75 39A0.25 0.25 0 0 1 20 39.25L20 39.75A0.25 0.25 0 0 1 19.75 40L18.25 40A0.25 0.25 0 0 0 18 40.25L18 40.75A0.25 0.25 0 0 0 18.25 41L19.75 41A0.25 0.25 0 0 0 20 40.75L20 40.25A0.25 0.25 0 0 1 20.25 40L20.75 40A0.25 0.25 0 0 1 21 40.25L21 40.75A0.25 0.25 0 0 0 21.25 41L22.75 41A0.25 0.25 0 0 0 23 40.75L23 39.25A0.25 0.25 0 0 0 22.75 39L22.25 39A0.25 0.25 0 0 1 22 38.75L22 37.25A0.25 0.25 0 0 1 22.25 37L23.75 37A0.25 0.25 0 0 1 24 37.25L24 39.75A0.25 0.25 0 0 0 24.25 40L24.75 40A0.25 0.25 0 0 1 25 40.25L25 40.75A0.25 0.25 0 0 0 25.25 41L26.75 41A0.25 0.25 0 0 0 27 40.75L27 40.25A0.25 0.25 0 0 0 26.75 40L25.25 40A0.25 0.25 0 0 1 25 39.75L25 39.25A0.25 0.25 0 0 1 25.25 39L25.75 39A0.25 0.25 0 0 0 26 38.75L26 37.25A0.25 0.25 0 0 1 26.25 37L27.75 37A0.25 0.25 0 0 1 28 37.25L28 37.75A0.25 0.25 0 0 0 28.25 38L28.75 38A0.25 0.25 0 0 1 29 38.25L29 38.75A0.25 0.25 0 0 0 29.25 39L30.75 39A0.25 0.25 0 0 0 31 38.75L31 38.25A0.25 0.25 0 0 1 31.25 38L33.75 38A0.25 0.25 0 0 0 34 37.75L34 37.25A0.25 0.25 0 0 1 34.25 37L34.75 37A0.25 0.25 0 0 1 35 37.25L35 37.75A0.25 0.25 0 0 0 35.25 38L37.75 38A0.25 0.25 0 0 0 38 37.75L38 37.25A0.25 0.25 0 0 1 38.25 37L38.75 37A0.25 0.25 0 0 1 39 37.25L39 40.75A0.25 0.25 0 0 0 39.25 41L39.75 41A0.25 0.25 0 0 0 40 40.75L40 39.25A0.25 0.25 0 0 1 40.25 39L40.75 39A0.25 0.25 0 0 0 41 38.75L41 36.25A0.25 0.25 0 0 0 40.75 36L38.25 36A0.25 0.25 0 0 1 38 35.75L38 35.25A0.25 0.25 0 0 0 37.75 35L37.25 35A0.25 0.25 0 0 1 37 34.75L37 33.25A0.25 0.25 0 0 1 37.25 33L37.75 33A0.25 0.25 0 0 1 38 33.25L38 33.75A0.25 0.25 0 0 0 38.25 34L38.75 34A0.25 0.25 0 0 1 39 34.25L39 34.75A0.25 0.25 0 0 0 39.25 35L39.75 35A0.25 0.25 0 0 0 40 34.75L40 34.25A0.25 0.25 0 0 0 39.75 34L39.25 34A0.25 0.25 0 0 1 39 33.75L39 33.25A0.25 0.25 0 0 0 38.75 33L38.25 33A0.25 0.25 0 0 1 38 32.75L38 32.25A0.25 0.25 0 0 1 38.25 32L38.75 32A0.25 0.25 0 0 0 39 31.75L39 31.25A0.25 0.25 0 0 0 38.75 31L34.25 31A0.25 0.25 0 0 0 34 31.25L34 31.75A0.25 0.25 0 0 1 33.75 32L32.25 32A0.25 0.25 0 0 0 32 32.25L32 33.75A0.25 0.25 0 0 1 31.75 34L31.25 34A0.25 0.25 0 0 1 31 33.75L31 31.25A0.25 0.25 0 0 0 30.75 31L30.25 31A0.25 0.25 0 0 1 30 30.75L30 30.25A0.25 0.25 0 0 0 29.75 30L28.25 30A0.25 0.25 0 0 1 28 29.75L28 29.25A0.25 0.25 0 0 1 28.25 29L30.75 29A0.25 0.25 0 0 1 31 29.25L31 29.75A0.25 0.25 0 0 0 31.25 30L31.75 30A0.25 0.25 0 0 1 32 30.25L32 30.75A0.25 0.25 0 0 0 32.25 31L32.75 31A0.25 0.25 0 0 0 33 30.75L33 30.25A0.25 0.25 0 0 1 33.25 30L33.75 30A0.25 0.25 0 0 0 34 29.75L34 28.25A0.25 0.25 0 0 0 33.75 28L33.25 28A0.25 0.25 0 0 1 33 27.75L33 27.25A0.25 0.25 0 0 0 32.75 27L32.25 27A0.25 0.25 0 0 1 32 26.75L32 25.25A0.25 0.25 0 0 0 31.75 25L30.25 25A0.25 0.25 0 0 1 30 24.75L30 24.25A0.25 0.25 0 0 0 29.75 24L29.25 24A0.25 0.25 0 0 1 29 23.75L29 23.25A0.25 0.25 0 0 1 29.25 23L30.75 23A0.25 0.25 0 0 1 31 23.25L31 23.75A0.25 0.25 0 0 0 31.25 24L32.75 24A0.25 0.25 0 0 0 33 23.75L33 23.25A0.25 0.25 0 0 1 33.25 23L34.75 23A0.25 0.25 0 0 0 35 22.75L35 22.25A0.25 0.25 0 0 1 35.25 22L36.75 22A0.25 0.25 0 0 1 37 22.25L37 22.75A0.25 0.25 0 0 0 37.25 23L39.75 23A0.25 0.25 0 0 1 40 23.25L40 23.75A0.25 0.25 0 0 1 39.75 24L37.25 24A0.25 0.25 0 0 0 37 24.25L37 24.75A0.25 0.25 0 0 0 37.25 25L37.75 25A0.25 0.25 0 0 1 38 25.25L38 26.75A0.25 0.25 0 0 0 38.25 27L40.75 27A0.25 0.25 0 0 0 41 26.75L41 23.25A0.25 0.25 0 0 0 40.75 23L40.25 23A0.25 0.25 0 0 1 40 22.75L40 22.25A0.25 0.25 0 0 1 40.25 22L40.75 22A0.25 0.25 0 0 0 41 21.75L41 20.25A0.25 0.25 0 0 0 40.75 20L39.25 20A0.25 0.25 0 0 1 39 19.75L39 19.25A0.25 0.25 0 0 0 38.75 19L37.25 19A0.25 0.25 0 0 0 37 19.25L37 19.75A0.25 0.25 0 0 1 36.75 20L35.25 20A0.25 0.25 0 0 1 35 19.75L35 19.25A0.25 0.25 0 0 1 35.25 19L35.75 19A0.25 0.25 0 0 0 36 18.75L36 17.25A0.25 0.25 0 0 1 36.25 17L36.75 17A0.25 0.25 0 0 1 37 17.25L37 17.75A0.25 0.25 0 0 0 37.25 18L37.75 18A0.25 0.25 0 0 0 38 17.75L38 17.25A0.25 0.25 0 0 1 38.25 17L39.75 17A0.25 0.25 0 0 1 40 17.25L40 17.75A0.25 0.25 0 0 0 40.25 18L40.75 18A0.25 0.25 0 0 0 41 17.75L41 17.25A0.25 0.25 0 0 0 40.75 17L40.25 17A0.25 0.25 0 0 1 40 16.75L40 15.25A0.25 0.25 0 0 1 40.25 15L40.75 15A0.25 0.25 0 0 0 41 14.75L41 11.25A0.25 0.25 0 0 0 40.75 11L40.25 11A0.25 0.25 0 0 1 40 10.75L40 9.25A0.25 0.25 0 0 1 40.25 9L40.75 9A0.25 0.25 0 0 0 41 8.75L41 8.25A0.25 0.25 0 0 0 40.75 8L40.25 8A0.25 0.25 0 0 0 40 8.25L40 8.75A0.25 0.25 0 0 1 39.75 9L39.25 9A0.25 0.25 0 0 1 39 8.75L39 8.25A0.25 0.25 0 0 0 38.75 8L36.25 8A0.25 0.25 0 0 0 36 8.25L36 8.75A0.25 0.25 0 0 1 35.75 9L34.25 9A0.25 0.25 0 0 1 34 8.75L34 8.25A0.25 0.25 0 0 0 33.75 8L33.25 8A0.25 0.25 0 0 1 33 7.75L33 5.25A0.25 0.25 0 0 0 32.75 5L31.25 5A0.25 0.25 0 0 1 31 4.75L31 4.25A0.25 0.25 0 0 1 31.25 4L31.75 4A0.25 0.25 0 0 0 32 3.75L32 3.25A0.25 0.25 0 0 1 32.25 3L32.75 3A0.25 0.25 0 0 0 33 2.75L33 2.25A0.25 0.25 0 0 0 32.75 2L31.25 2A0.25 0.25 0 0 1 31 1.75L31 1.25A0.25 0.25 0 0 1 31.25 1L32.75 1A0.25 0.25 0 0 0 33 0.75L33 0.25A0.25 0.25 0 0 0 32.75 0L28.25 0A0.25 0.25 0 0 0 28 0.25L28 1.75A0.25 0.25 0 0 1 27.75 2L27.25 2A0.25 0.25 0 0 1 27 1.75L27 1.25A0.25 0.25 0 0 0 26.75 1L26.25 1A0.25 0.25 0 0 1 26 0.75L26 0.25A0.25 0.25 0 0 0 25.75 0L25.25 0A0.25 0.25 0 0 0 25 0.25L25 0.75A0.25 0.25 0 0 1 24.75 1L24.25 1A0.25 0.25 0 0 1 24 0.75L24 0.25A0.25 0.25 0 0 0 23.75 0L22.25 0A0.25 0.25 0 0 0 22 0.25L22 0.75A0.25 0.25 0 0 0 22.25 1L22.75 1A0.25 0.25 0 0 1 23 1.25L23 2.75A0.25 0.25 0 0 1 22.75 3L21.25 3A0.25 0.25 0 0 1 21 2.75L21 0.25A0.25 0.25 0 0 0 20.75 0L16.25 0A0.25 0.25 0 0 0 16 0.25ZM29 1.25L29 2.75A0.25 0.25 0 0 1 28.75 3L28.25 3A0.25 0.25 0 0 0 28 3.25L28 3.75A0.25 0.25 0 0 0 28.25 4L28.75 4A0.25 0.25 0 0 1 29 4.25L29 4.75A0.25 0.25 0 0 1 28.75 5L27.25 5A0.25 0.25 0 0 1 27 4.75L27 4.25A0.25 0.25 0 0 0 26.75 4L26.25 4A0.25 0.25 0 0 1 26 3.75L26 3.25A0.25 0.25 0 0 1 26.25 3L26.75 3A0.25 0.25 0 0 0 27 2.75L27 2.25A0.25 0.25 0 0 0 26.75 2L26.25 2A0.25 0.25 0 0 0 26 2.25L26 2.75A0.25 0.25 0 0 1 25.75 3L25.25 3A0.25 0.25 0 0 1 25 2.75L25 2.25A0.25 0.25 0 0 0 24.75 2L24.25 2A0.25 0.25 0 0 0 24 2.25L24 2.75A0.25 0.25 0 0 1 23.75 3L23.25 3A0.25 0.25 0 0 0 23 3.25L23 3.75A0.25 0.25 0 0 1 22.75 4L20.25 4A0.25 0.25 0 0 0 20 4.25L20 5.75A0.25 0.25 0 0 1 19.75 6L19.25 6A0.25 0.25 0 0 0 19 6.25L19 6.75A0.25 0.25 0 0 0 19.25 7L19.75 7A0.25 0.25 0 0 1 20 7.25L20 7.75A0.25 0.25 0 0 1 19.75 8L19.25 8A0.25 0.25 0 0 0 19 8.25L19 8.75A0.25 0.25 0 0 0 19.25 9L19.75 9A0.25 0.25 0 0 0 20 8.75L20 8.25A0.25 0.25 0 0 1 20.25 8L21.75 8A0.25 0.25 0 0 1 22 8.25L22 8.75A0.25 0.25 0 0 1 21.75 9L21.25 9A0.25 0.25 0 0 0 21 9.25L21 9.75A0.25 0.25 0 0 1 20.75 10L19.25 10A0.25 0.25 0 0 0 19 10.25L19 11.75A0.25 0.25 0 0 1 18.75 12L18.25 12A0.25 0.25 0 0 0 18 12.25L18 12.75A0.25 0.25 0 0 1 17.75 13L15.25 13A0.25 0.25 0 0 0 15 13.25L15 14.75A0.25 0.25 0 0 0 15.25 15L15.75 15A0.25 0.25 0 0 1 16 15.25L16 15.75A0.25 0.25 0 0 1 15.75 16L14.25 16A0.25 0.25 0 0 1 14 15.75L14 14.25A0.25 0.25 0 0 0 13.75 14L13.25 14A0.25 0.25 0 0 0 13 14.25L13 15.75A0.25 0.25 0 0 1 12.75 16L12.25 16A0.25 0.25 0 0 1 12 15.75L12 14.25A0.25 0.25 0 0 0 11.75 14L11.25 14A0.25 0.25 0 0 0 11 14.25L11 15.75A0.25 0.25 0 0 1 10.75 16L10.25 16A0.25 0.25 0 0 0 10 16.25L10 16.75A0.25 0.25 0 0 0 10.25 17L10.75 17A0.25 0.25 0 0 0 11 16.75L11 16.25A0.25 0.25 0 0 1 11.25 16L11.75 16A0.25 0.25 0 0 1 12 16.25L12 16.75A0.25 0.25 0 0 0 12.25 17L12.75 17A0.25 0.25 0 0 0 13 16.75L13 16.25A0.25 0.25 0 0 1 13.25 16L13.75 16A0.25 0.25 0 0 1 14 16.25L14 17.75A0.25 0.25 0 0 1 13.75 18L10.25 18A0.25 0.25 0 0 0 10 18.25L10 18.75A0.25 0.25 0 0 1 9.75 19L9.25 19A0.25 0.25 0 0 0 9 19.25L9 19.75A0.25 0.25 0 0 0 9.25 20L9.75 20A0.25 0.25 0 0 0 10 19.75L10 19.25A0.25 0.25 0 0 1 10.25 19L12.75 19A0.25 0.25 0 0 1 13 19.25L13 19.75A0.25 0.25 0 0 1 12.75 20L12.25 20A0.25 0.25 0 0 0 12 20.25L12 20.75A0.25 0.25 0 0 1 11.75 21L11.25 21A0.25 0.25 0 0 0 11 21.25L11 22.75A0.25 0.25 0 0 1 10.75 23L10.25 23A0.25 0.25 0 0 1 10 22.75L10 21.25A0.25 0.25 0 0 0 9.75 21L9.25 21A0.25 0.25 0 0 0 9 21.25L9 21.75A0.25 0.25 0 0 1 8.75 22L8.25 22A0.25 0.25 0 0 1 8 21.75L8 21.25A0.25 0.25 0 0 0 7.75 21L6.25 21A0.25 0.25 0 0 1 6 20.75L6 20.25A0.25 0.25 0 0 1 6.25 20L7.75 20A0.25 0.25 0 0 0 8 19.75L8 18.25A0.25 0.25 0 0 0 7.75 18L7.25 18A0.25 0.25 0 0 1 7 17.75L7 17.25A0.25 0.25 0 0 1 7.25 17L7.75 17A0.25 0.25 0 0 0 8 16.75L8 16.25A0.25 0.25 0 0 0 7.75 16L7.25 16A0.25 0.25 0 0 1 7 15.75L7 15.25A0.25 0.25 0 0 0 6.75 15L6.25 15A0.25 0.25 0 0 0 6 15.25L6 15.75A0.25 0.25 0 0 0 6.25 16L6.75 16A0.25 0.25 0 0 1 7 16.25L7 16.75A0.25 0.25 0 0 1 6.75 17L5.25 17A0.25 0.25 0 0 0 5 17.25L5 17.75A0.25 0.25 0 0 1 4.75 18L4.25 18A0.25 0.25 0 0 0 4 18.25L4 19.75A0.25 0.25 0 0 0 4.25 20L4.75 20A0.25 0.25 0 0 1 5 20.25L5 20.75A0.25 0.25 0 0 1 4.75 21L4.25 21A0.25 0.25 0 0 0 4 21.25L4 21.75A0.25 0.25 0 0 1 3.75 22L3.25 22A0.25 0.25 0 0 0 3 22.25L3 23.75A0.25 0.25 0 0 1 2.75 24L2.25 24A0.25 0.25 0 0 0 2 24.25L2 24.75A0.25 0.25 0 0 0 2.25 25L4.75 25A0.25 0.25 0 0 1 5 25.25L5 26.75A0.25 0.25 0 0 0 5.25 27L5.75 27A0.25 0.25 0 0 1 6 27.25L6 27.75A0.25 0.25 0 0 0 6.25 28L9.75 28A0.25 0.25 0 0 1 10 28.25L10 28.75A0.25 0.25 0 0 1 9.75 29L9.25 29A0.25 0.25 0 0 0 9 29.25L9 29.75A0.25 0.25 0 0 1 8.75 30L8.25 30A0.25 0.25 0 0 0 8 30.25L8 30.75A0.25 0.25 0 0 0 8.25 31L8.75 31A0.25 0.25 0 0 0 9 30.75L9 30.25A0.25 0.25 0 0 1 9.25 30L9.75 30A0.25 0.25 0 0 1 10 30.25L10 31.75A0.25 0.25 0 0 1 9.75 32L9.25 32A0.25 0.25 0 0 0 9 32.25L9 32.75A0.25 0.25 0 0 0 9.25 33L9.75 33A0.25 0.25 0 0 0 10 32.75L10 32.25A0.25 0.25 0 0 1 10.25 32L10.75 32A0.25 0.25 0 0 1 11 32.25L11 32.75A0.25 0.25 0 0 0 11.25 33L12.75 33A0.25 0.25 0 0 1 13 33.25L13 33.75A0.25 0.25 0 0 1 12.75 34L12.25 34A0.25 0.25 0 0 0 12 34.25L12 35.75A0.25 0.25 0 0 0 12.25 36L12.75 36A0.25 0.25 0 0 1 13 36.25L13 36.75A0.25 0.25 0 0 0 13.25 37L13.75 37A0.25 0.25 0 0 1 14 37.25L14 37.75A0.25 0.25 0 0 0 14.25 38L14.75 38A0.25 0.25 0 0 0 15 37.75L15 36.25A0.25 0.25 0 0 1 15.25 36L17.75 36A0.25 0.25 0 0 0 18 35.75L18 35.25A0.25 0.25 0 0 1 18.25 35L18.75 35A0.25 0.25 0 0 1 19 35.25L19 37.75A0.25 0.25 0 0 0 19.25 38L20.75 38A0.25 0.25 0 0 0 21 37.75L21 36.25A0.25 0.25 0 0 1 21.25 36L21.75 36A0.25 0.25 0 0 0 22 35.75L22 35.25A0.25 0.25 0 0 1 22.25 35L22.75 35A0.25 0.25 0 0 0 23 34.75L23 33.25A0.25 0.25 0 0 1 23.25 33L23.75 33A0.25 0.25 0 0 1 24 33.25L24 33.75A0.25 0.25 0 0 0 24.25 34L24.75 34A0.25 0.25 0 0 1 25 34.25L25 34.75A0.25 0.25 0 0 0 25.25 35L25.75 35A0.25 0.25 0 0 1 26 35.25L26 35.75A0.25 0.25 0 0 1 25.75 36L24.25 36A0.25 0.25 0 0 0 24 36.25L24 36.75A0.25 0.25 0 0 0 24.25 37L25.75 37A0.25 0.25 0 0 0 26 36.75L26 36.25A0.25 0.25 0 0 1 26.25 36L26.75 36A0.25 0.25 0 0 0 27 35.75L27 35.25A0.25 0.25 0 0 1 27.25 35L28.75 35A0.25 0.25 0 0 1 29 35.25L29 35.75A0.25 0.25 0 0 1 28.75 36L28.25 36A0.25 0.25 0 0 0 28 36.25L28 36.75A0.25 0.25 0 0 0 28.25 37L28.75 37A0.25 0.25 0 0 1 29 37.25L29 37.75A0.25 0.25 0 0 0 29.25 38L30.75 38A0.25 0.25 0 0 0 31 37.75L31 37.25A0.25 0.25 0 0 1 31.25 37L31.75 37A0.25 0.25 0 0 0 32 36.75L32 35.25A0.25 0.25 0 0 0 31.75 35L31.25 35A0.25 0.25 0 0 0 31 35.25L31 35.75A0.25 0.25 0 0 1 30.75 36L30.25 36A0.25 0.25 0 0 1 30 35.75L30 35.25A0.25 0.25 0 0 0 29.75 35L29.25 35A0.25 0.25 0 0 1 29 34.75L29 34.25A0.25 0.25 0 0 0 28.75 34L28.25 34A0.25 0.25 0 0 1 28 33.75L28 32.25A0.25 0.25 0 0 1 28.25 32L28.75 32A0.25 0.25 0 0 0 29 31.75L29 31.25A0.25 0.25 0 0 0 28.75 31L26.25 31A0.25 0.25 0 0 1 26 30.75L26 30.25A0.25 0.25 0 0 1 26.25 30L26.75 30A0.25 0.25 0 0 0 27 29.75L27 28.25A0.25 0.25 0 0 1 27.25 28L30.75 28A0.25 0.25 0 0 0 31 27.75L31 27.25A0.25 0.25 0 0 0 30.75 27L29.25 27A0.25 0.25 0 0 1 29 26.75L29 26.25A0.25 0.25 0 0 0 28.75 26L27.25 26A0.25 0.25 0 0 0 27 26.25L27 27.75A0.25 0.25 0 0 1 26.75 28L26.25 28A0.25 0.25 0 0 1 26 27.75L26 27.25A0.25 0.25 0 0 0 25.75 27L25.25 27A0.25 0.25 0 0 0 25 27.25L25 27.75A0.25 0.25 0 0 1 24.75 28L24.25 28A0.25 0.25 0 0 0 24 28.25L24 28.75A0.25 0.25 0 0 1 23.75 29L21.25 29A0.25 0.25 0 0 0 21 29.25L21 29.75A0.25 0.25 0 0 1 20.75 30L20.25 30A0.25 0.25 0 0 1 20 29.75L20 27.25A0.25 0.25 0 0 0 19.75 27L18.25 27A0.25 0.25 0 0 1 18 26.75L18 26.25A0.25 0.25 0 0 1 18.25 26L18.75 26A0.25 0.25 0 0 0 19 25.75L19 24.25A0.25 0.25 0 0 1 19.25 24L19.75 24A0.25 0.25 0 0 0 20 23.75L20 23.25A0.25 0.25 0 0 1 20.25 23L20.75 23A0.25 0.25 0 0 1 21 23.25L21 24.75A0.25 0.25 0 0 1 20.75 25L20.25 25A0.25 0.25 0 0 0 20 25.25L20 25.75A0.25 0.25 0 0 0 20.25 26L20.75 26A0.25 0.25 0 0 1 21 26.25L21 26.75A0.25 0.25 0 0 0 21.25 27L21.75 27A0.25 0.25 0 0 0 22 26.75L22 23.25A0.25 0.25 0 0 1 22.25 23L22.75 23A0.25 0.25 0 0 1 23 23.25L23 23.75A0.25 0.25 0 0 0 23.25 24L23.75 24A0.25 0.25 0 0 1 24 24.25L24 24.75A0.25 0.25 0 0 1 23.75 25L23.25 25A0.25 0.25 0 0 0 23 25.25L23 26.75A0.25 0.25 0 0 0 23.25 27L23.75 27A0.25 0.25 0 0 0 24 26.75L24 25.25A0.25 0.25 0 0 1 24.25 25L24.75 25A0.25 0.25 0 0 0 25 24.75L25 24.25A0.25 0.25 0 0 0 24.75 24L24.25 24A0.25 0.25 0 0 1 24 23.75L24 23.25A0.25 0.25 0 0 0 23.75 23L23.25 23A0.25 0.25 0 0 1 23 22.75L23 21.25A0.25 0.25 0 0 1 23.25 21L23.75 21A0.25 0.25 0 0 1 24 21.25L24 21.75A0.25 0.25 0 0 0 24.25 22L24.75 22A0.25 0.25 0 0 0 25 21.75L25 20.25A0.25 0.25 0 0 1 25.25 20L25.75 20A0.25 0.25 0 0 0 26 19.75L26 18.25A0.25 0.25 0 0 1 26.25 18L26.75 18A0.25 0.25 0 0 0 27 17.75L27 17.25A0.25 0.25 0 0 0 26.75 17L26.25 17A0.25 0.25 0 0 0 26 17.25L26 17.75A0.25 0.25 0 0 1 25.75 18L23.25 18A0.25 0.25 0 0 1 23 17.75L23 17.25A0.25 0.25 0 0 1 23.25 17L23.75 17A0.25 0.25 0 0 0 24 16.75L24 16.25A0.25 0.25 0 0 0 23.75 16L23.25 16A0.25 0.25 0 0 0 23 16.25L23 16.75A0.25 0.25 0 0 1 22.75 17L20.25 17A0.25 0.25 0 0 1 20 16.75L20 16.25A0.25 0.25 0 0 1 20.25 16L20.75 16A0.25 0.25 0 0 0 21 15.75L21 15.25A0.25 0.25 0 0 1 21.25 15L21.75 15A0.25 0.25 0 0 0 22 14.75L22 14.25A0.25 0.25 0 0 1 22.25 14L22.75 14A0.25 0.25 0 0 1 23 14.25L23 14.75A0.25 0.25 0 0 0 23.25 15L24.75 15A0.25 0.25 0 0 1 25 15.25L25 15.75A0.25 0.25 0 0 0 25.25 16L25.75 16A0.25 0.25 0 0 0 26 15.75L26 15.25A0.25 0.25 0 0 0 25.75 15L25.25 15A0.25 0.25 0 0 1 25 14.75L25 14.25A0.25 0.25 0 0 0 24.75 14L23.25 14A0.25 0.25 0 0 1 23 13.75L23 13.25A0.25 0.25 0 0 1 23.25 13L23.75 13A0.25 0.25 0 0 0 24 12.75L24 12.25A0.25 0.25 0 0 1 24.25 12L24.75 12A0.25 0.25 0 0 0 25 11.75L25 11.25A0.25 0.25 0 0 1 25.25 11L25.75 11A0.25 0.25 0 0 0 26 10.75L26 10.25A0.25 0.25 0 0 1 26.25 10L26.75 10A0.25 0.25 0 0 1 27 10.25L27 10.75A0.25 0.25 0 0 0 27.25 11L27.75 11A0.25 0.25 0 0 1 28 11.25L28 11.75A0.25 0.25 0 0 1 27.75 12L27.25 12A0.25 0.25 0 0 0 27 12.25L27 12.75A0.25 0.25 0 0 1 26.75 13L26.25 13A0.25 0.25 0 0 0 26 13.25L26 13.75A0.25 0.25 0 0 0 26.25 14L26.75 14A0.25 0.25 0 0 1 27 14.25L27 15.75A0.25 0.25 0 0 0 27.25 16L27.75 16A0.25 0.25 0 0 1 28 16.25L28 16.75A0.25 0.25 0 0 0 28.25 17L29.75 17A0.25 0.25 0 0 0 30 16.75L30 16.25A0.25 0.25 0 0 1 30.25 16L30.75 16A0.25 0.25 0 0 0 31 15.75L31 15.25A0.25 0.25 0 0 0 30.75 15L30.25 15A0.25 0.25 0 0 1 30 14.75L30 14.25A0.25 0.25 0 0 1 30.25 14L30.75 14A0.25 0.25 0 0 0 31 13.75L31 11.25A0.25 0.25 0 0 1 31.25 11L31.75 11A0.25 0.25 0 0 1 32 11.25L32 11.75A0.25 0.25 0 0 0 32.25 12L32.75 12A0.25 0.25 0 0 1 33 12.25L33 13.75A0.25 0.25 0 0 0 33.25 14L35.75 14A0.25 0.25 0 0 1 36 14.25L36 14.75A0.25 0.25 0 0 1 35.75 15L35.25 15A0.25 0.25 0 0 0 35 15.25L35 15.75A0.25 0.25 0 0 1 34.75 16L34.25 16A0.25 0.25 0 0 1 34 15.75L34 15.25A0.25 0.25 0 0 0 33.75 15L33.25 15A0.25 0.25 0 0 0 33 15.25L33 15.75A0.25 0.25 0 0 1 32.75 16L32.25 16A0.25 0.25 0 0 0 32 16.25L32 16.75A0.25 0.25 0 0 1 31.75 17L31.25 17A0.25 0.25 0 0 0 31 17.25L31 17.75A0.25 0.25 0 0 1 30.75 18L30.25 18A0.25 0.25 0 0 0 30 18.25L30 18.75A0.25 0.25 0 0 0 30.25 19L30.75 19A0.25 0.25 0 0 1 31 19.25L31 20.75A0.25 0.25 0 0 1 30.75 21L28.25 21A0.25 0.25 0 0 1 28 20.75L28 20.25A0.25 0.25 0 0 1 28.25 20L28.75 20A0.25 0.25 0 0 0 29 19.75L29 19.25A0.25 0.25 0 0 0 28.75 19L28.25 19A0.25 0.25 0 0 0 28 19.25L28 19.75A0.25 0.25 0 0 1 27.75 20L27.25 20A0.25 0.25 0 0 0 27 20.25L27 20.75A0.25 0.25 0 0 1 26.75 21L26.25 21A0.25 0.25 0 0 0 26 21.25L26 23.75A0.25 0.25 0 0 0 26.25 24L26.75 24A0.25 0.25 0 0 1 27 24.25L27 24.75A0.25 0.25 0 0 0 27.25 25L27.75 25A0.25 0.25 0 0 0 28 24.75L28 22.25A0.25 0.25 0 0 1 28.25 22L30.75 22A0.25 0.25 0 0 1 31 22.25L31 22.75A0.25 0.25 0 0 0 31.25 23L31.75 23A0.25 0.25 0 0 0 32 22.75L32 22.25A0.25 0.25 0 0 0 31.75 22L31.25 22A0.25 0.25 0 0 1 31 21.75L31 21.25A0.25 0.25 0 0 1 31.25 21L32.75 21A0.25 0.25 0 0 0 33 20.75L33 20.25A0.25 0.25 0 0 0 32.75 20L32.25 20A0.25 0.25 0 0 1 32 19.75L32 17.25A0.25 0.25 0 0 1 32.25 17L32.75 17A0.25 0.25 0 0 1 33 17.25L33 17.75A0.25 0.25 0 0 0 33.25 18L33.75 18A0.25 0.25 0 0 1 34 18.25L34 18.75A0.25 0.25 0 0 0 34.25 19L34.75 19A0.25 0.25 0 0 0 35 18.75L35 17.25A0.25 0.25 0 0 1 35.25 17L35.75 17A0.25 0.25 0 0 0 36 16.75L36 16.25A0.25 0.25 0 0 1 36.25 16L36.75 16A0.25 0.25 0 0 0 37 15.75L37 13.25A0.25 0.25 0 0 0 36.75 13L36.25 13A0.25 0.25 0 0 1 36 12.75L36 12.25A0.25 0.25 0 0 1 36.25 12L38.75 12A0.25 0.25 0 0 1 39 12.25L39 12.75A0.25 0.25 0 0 0 39.25 13L39.75 13A0.25 0.25 0 0 0 40 12.75L40 12.25A0.25 0.25 0 0 0 39.75 12L39.25 12A0.25 0.25 0 0 1 39 11.75L39 11.25A0.25 0.25 0 0 0 38.75 11L38.25 11A0.25 0.25 0 0 1 38 10.75L38 10.25A0.25 0.25 0 0 1 38.25 10L38.75 10A0.25 0.25 0 0 0 39 9.75L39 9.25A0.25 0.25 0 0 0 38.75 9L38.25 9A0.25 0.25 0 0 0 38 9.25L38 9.75A0.25 0.25 0 0 1 37.75 10L37.25 10A0.25 0.25 0 0 0 37 10.25L37 10.75A0.25 0.25 0 0 1 36.75 11L36.25 11A0.25 0.25 0 0 1 36 10.75L36 10.25A0.25 0.25 0 0 0 35.75 10L35.25 10A0.25 0.25 0 0 0 35 10.25L35 10.75A0.25 0.25 0 0 1 34.75 11L32.25 11A0.25 0.25 0 0 1 32 10.75L32 10.25A0.25 0.25 0 0 1 32.25 10L33.75 10A0.25 0.25 0 0 0 34 9.75L34 9.25A0.25 0.25 0 0 0 33.75 9L33.25 9A0.25 0.25 0 0 1 33 8.75L33 8.25A0.25 0.25 0 0 0 32.75 8L32.25 8A0.25 0.25 0 0 1 32 7.75L32 6.25A0.25 0.25 0 0 0 31.75 6L31.25 6A0.25 0.25 0 0 0 31 6.25L31 6.75A0.25 0.25 0 0 1 30.75 7L30.25 7A0.25 0.25 0 0 1 30 6.75L30 6.25A0.25 0.25 0 0 0 29.75 6L29.25 6A0.25 0.25 0 0 1 29 5.75L29 5.25A0.25 0.25 0 0 1 29.25 5L29.75 5A0.25 0.25 0 0 0 30 4.75L30 4.25A0.25 0.25 0 0 1 30.25 4L30.75 4A0.25 0.25 0 0 0 31 3.75L31 2.25A0.25 0.25 0 0 0 30.75 2L30.25 2A0.25 0.25 0 0 1 30 1.75L30 1.25A0.25 0.25 0 0 0 29.75 1L29.25 1A0.25 0.25 0 0 0 29 1.25ZM11 3.25L11 3.75A0.25 0.25 0 0 1 10.75 4L9.25 4A0.25 0.25 0 0 0 9 4.25L9 4.75A0.25 0.25 0 0 0 9.25 5L9.75 5A0.25 0.25 0 0 1 10 5.25L10 5.75A0.25 0.25 0 0 0 10.25 6L10.75 6A0.25 0.25 0 0 1 11 6.25L11 6.75A0.25 0.25 0 0 0 11.25 7L11.75 7A0.25 0.25 0 0 0 12 6.75L12 3.25A0.25 0.25 0 0 0 11.75 3L11.25 3A0.25 0.25 0 0 0 11 3.25ZM13 3.25L13 3.75A0.25 0.25 0 0 0 13.25 4L13.75 4A0.25 0.25 0 0 1 14 4.25L14 4.75A0.25 0.25 0 0 0 14.25 5L15.75 5A0.25 0.25 0 0 0 16 4.75L16 4.25A0.25 0.25 0 0 1 16.25 4L16.75 4A0.25 0.25 0 0 0 17 3.75L17 3.25A0.25 0.25 0 0 0 16.75 3L16.25 3A0.25 0.25 0 0 0 16 3.25L16 3.75A0.25 0.25 0 0 1 15.75 4L15.25 4A0.25 0.25 0 0 1 15 3.75L15 3.25A0.25 0.25 0 0 0 14.75 3L13.25 3A0.25 0.25 0 0 0 13 3.25ZM29 3.25L29 3.75A0.25 0.25 0 0 0 29.25 4L29.75 4A0.25 0.25 0 0 0 30 3.75L30 3.25A0.25 0.25 0 0 0 29.75 3L29.25 3A0.25 0.25 0 0 0 29 3.25ZM24 4.25L24 6.75A0.25 0.25 0 0 1 23.75 7L23.25 7A0.25 0.25 0 0 1 23 6.75L23 5.25A0.25 0.25 0 0 0 22.75 5L21.25 5A0.25 0.25 0 0 0 21 5.25L21 5.75A0.25 0.25 0 0 1 20.75 6L20.25 6A0.25 0.25 0 0 0 20 6.25L20 6.75A0.25 0.25 0 0 0 20.25 7L20.75 7A0.25 0.25 0 0 0 21 6.75L21 6.25A0.25 0.25 0 0 1 21.25 6L21.75 6A0.25 0.25 0 0 1 22 6.25L22 6.75A0.25 0.25 0 0 0 22.25 7L22.75 7A0.25 0.25 0 0 1 23 7.25L23 7.75A0.25 0.25 0 0 0 23.25 8L23.75 8A0.25 0.25 0 0 0 24 7.75L24 7.25A0.25 0.25 0 0 1 24.25 7L24.75 7A0.25 0.25 0 0 0 25 6.75L25 5.25A0.25 0.25 0 0 1 25.25 5L25.75 5A0.25 0.25 0 0 1 26 5.25L26 6.75A0.25 0.25 0 0 0 26.25 7L26.75 7A0.25 0.25 0 0 0 27 6.75L27 5.25A0.25 0.25 0 0 0 26.75 5L26.25 5A0.25 0.25 0 0 1 26 4.75L26 4.25A0.25 0.25 0 0 0 25.75 4L24.25 4A0.25 0.25 0 0 0 24 4.25ZM15 6.25L15 6.75A0.25 0.25 0 0 0 15.25 7L15.75 7A0.25 0.25 0 0 0 16 6.75L16 6.25A0.25 0.25 0 0 0 15.75 6L15.25 6A0.25 0.25 0 0 0 15 6.25ZM28 6.25L28 7.75A0.25 0.25 0 0 1 27.75 8L26.25 8A0.25 0.25 0 0 0 26 8.25L26 8.75A0.25 0.25 0 0 1 25.75 9L25.25 9A0.25 0.25 0 0 0 25 9.25L25 9.75A0.25 0.25 0 0 1 24.75 10L24.25 10A0.25 0.25 0 0 1 24 9.75L24 9.25A0.25 0.25 0 0 0 23.75 9L23.25 9A0.25 0.25 0 0 0 23 9.25L23 9.75A0.25 0.25 0 0 1 22.75 10L21.25 10A0.25 0.25 0 0 0 21 10.25L21 10.75A0.25 0.25 0 0 1 20.75 11L20.25 11A0.25 0.25 0 0 0 20 11.25L20 11.75A0.25 0.25 0 0 1 19.75 12L19.25 12A0.25 0.25 0 0 0 19 12.25L19 12.75A0.25 0.25 0 0 1 18.75 13L18.25 13A0.25 0.25 0 0 0 18 13.25L18 16.75A0.25 0.25 0 0 0 18.25 17L18.75 17A0.25 0.25 0 0 0 19 16.75L19 15.25A0.25 0.25 0 0 1 19.25 15L20.75 15A0.25 0.25 0 0 0 21 14.75L21 14.25A0.25 0.25 0 0 1 21.25 14L21.75 14A0.25 0.25 0 0 0 22 13.75L22 13.25A0.25 0.25 0 0 1 22.25 13L22.75 13A0.25 0.25 0 0 0 23 12.75L23 12.25A0.25 0.25 0 0 1 23.25 12L23.75 12A0.25 0.25 0 0 0 24 11.75L24 11.25A0.25 0.25 0 0 1 24.25 11L24.75 11A0.25 0.25 0 0 0 25 10.75L25 10.25A0.25 0.25 0 0 1 25.25 10L25.75 10A0.25 0.25 0 0 0 26 9.75L26 9.25A0.25 0.25 0 0 1 26.25 9L27.75 9A0.25 0.25 0 0 1 28 9.25L28 9.75A0.25 0.25 0 0 0 28.25 10L31.75 10A0.25 0.25 0 0 0 32 9.75L32 8.25A0.25 0.25 0 0 0 31.75 8L30.25 8A0.25 0.25 0 0 1 30 7.75L30 7.25A0.25 0.25 0 0 0 29.75 7L29.25 7A0.25 0.25 0 0 1 29 6.75L29 6.25A0.25 0.25 0 0 0 28.75 6L28.25 6A0.25 0.25 0 0 0 28 6.25ZM16 8.25L16 8.75A0.25 0.25 0 0 0 16.25 9L16.75 9A0.25 0.25 0 0 0 17 8.75L17 8.25A0.25 0.25 0 0 0 16.75 8L16.25 8A0.25 0.25 0 0 0 16 8.25ZM8 10.25L8 11.75A0.25 0.25 0 0 1 7.75 12L7.25 12A0.25 0.25 0 0 1 7 11.75L7 11.25A0.25 0.25 0 0 0 6.75 11L6.25 11A0.25 0.25 0 0 0 6 11.25L6 11.75A0.25 0.25 0 0 0 6.25 12L6.75 12A0.25 0.25 0 0 1 7 12.25L7 12.75A0.25 0.25 0 0 1 6.75 13L5.25 13A0.25 0.25 0 0 0 5 13.25L5 13.75A0.25 0.25 0 0 0 5.25 14L6.75 14A0.25 0.25 0 0 0 7 13.75L7 13.25A0.25 0.25 0 0 1 7.25 13L7.75 13A0.25 0.25 0 0 1 8 13.25L8 14.75A0.25 0.25 0 0 0 8.25 15L8.75 15A0.25 0.25 0 0 0 9 14.75L9 13.25A0.25 0.25 0 0 1 9.25 13L9.75 13A0.25 0.25 0 0 0 10 12.75L10 12.25A0.25 0.25 0 0 0 9.75 12L9.25 12A0.25 0.25 0 0 1 9 11.75L9 10.25A0.25 0.25 0 0 0 8.75 10L8.25 10A0.25 0.25 0 0 0 8 10.25ZM4 11.25L4 11.75A0.25 0.25 0 0 0 4.25 12L4.75 12A0.25 0.25 0 0 0 5 11.75L5 11.25A0.25 0.25 0 0 0 4.75 11L4.25 11A0.25 0.25 0 0 0 4 11.25ZM21 11.25L21 11.75A0.25 0.25 0 0 1 20.75 12L20.25 12A0.25 0.25 0 0 0 20 12.25L20 12.75A0.25 0.25 0 0 1 19.75 13L19.25 13A0.25 0.25 0 0 0 19 13.25L19 13.75A0.25 0.25 0 0 0 19.25 14L20.75 14A0.25 0.25 0 0 0 21 13.75L21 12.25A0.25 0.25 0 0 1 21.25 12L21.75 12A0.25 0.25 0 0 0 22 11.75L22 11.25A0.25 0.25 0 0 0 21.75 11L21.25 11A0.25 0.25 0 0 0 21 11.25ZM35 11.25L35 11.75A0.25 0.25 0 0 0 35.25 12L35.75 12A0.25 0.25 0 0 0 36 11.75L36 11.25A0.25 0.25 0 0 0 35.75 11L35.25 11A0.25 0.25 0 0 0 35 11.25ZM8 12.25L8 12.75A0.25 0.25 0 0 0 8.25 13L8.75 13A0.25 0.25 0 0 0 9 12.75L9 12.25A0.25 0.25 0 0 0 8.75 12L8.25 12A0.25 0.25 0 0 0 8 12.25ZM29 12.25L29 12.75A0.25 0.25 0 0 1 28.75 13L28.25 13A0.25 0.25 0 0 0 28 13.25L28 13.75A0.25 0.25 0 0 0 28.25 14L29.75 14A0.25 0.25 0 0 0 30 13.75L30 12.25A0.25 0.25 0 0 0 29.75 12L29.25 12A0.25 0.25 0 0 0 29 12.25ZM38 14.25L38 15.75A0.25 0.25 0 0 0 38.25 16L38.75 16A0.25 0.25 0 0 0 39 15.75L39 14.25A0.25 0.25 0 0 0 38.75 14L38.25 14A0.25 0.25 0 0 0 38 14.25ZM28 15.25L28 15.75A0.25 0.25 0 0 0 28.25 16L28.75 16A0.25 0.25 0 0 0 29 15.75L29 15.25A0.25 0.25 0 0 0 28.75 15L28.25 15A0.25 0.25 0 0 0 28 15.25ZM0 16.25L0 16.75A0.25 0.25 0 0 0 0.25 17L2.75 17A0.25 0.25 0 0 0 3 16.75L3 16.25A0.25 0.25 0 0 0 2.75 16L0.25 16A0.25 0.25 0 0 0 0 16.25ZM16 16.25L16 16.75A0.25 0.25 0 0 1 15.75 17L15.25 17A0.25 0.25 0 0 0 15 17.25L15 20.75A0.25 0.25 0 0 1 14.75 21L14.25 21A0.25 0.25 0 0 1 14 20.75L14 20.25A0.25 0.25 0 0 0 13.75 20L13.25 20A0.25 0.25 0 0 0 13 20.25L13 20.75A0.25 0.25 0 0 0 13.25 21L13.75 21A0.25 0.25 0 0 1 14 21.25L14 21.75A0.25 0.25 0 0 1 13.75 22L13.25 22A0.25 0.25 0 0 0 13 22.25L13 22.75A0.25 0.25 0 0 1 12.75 23L11.25 23A0.25 0.25 0 0 0 11 23.25L11 23.75A0.25 0.25 0 0 1 10.75 24L10.25 24A0.25 0.25 0 0 0 10 24.25L10 24.75A0.25 0.25 0 0 1 9.75 25L9.25 25A0.25 0.25 0 0 1 9 24.75L9 23.25A0.25 0.25 0 0 0 8.75 23L8.25 23A0.25 0.25 0 0 1 8 22.75L8 22.25A0.25 0.25 0 0 0 7.75 22L6.25 22A0.25 0.25 0 0 1 6 21.75L6 21.25A0.25 0.25 0 0 0 5.75 21L5.25 21A0.25 0.25 0 0 0 5 21.25L5 21.75A0.25 0.25 0 0 0 5.25 22L5.75 22A0.25 0.25 0 0 1 6 22.25L6 22.75A0.25 0.25 0 0 1 5.75 23L5.25 23A0.25 0.25 0 0 0 5 23.25L5 23.75A0.25 0.25 0 0 0 5.25 24L5.75 24A0.25 0.25 0 0 1 6 24.25L6 24.75A0.25 0.25 0 0 0 6.25 25L6.75 25A0.25 0.25 0 0 1 7 25.25L7 25.75A0.25 0.25 0 0 1 6.75 26L6.25 26A0.25 0.25 0 0 0 6 26.25L6 26.75A0.25 0.25 0 0 0 6.25 27L9.75 27A0.25 0.25 0 0 0 10 26.75L10 26.25A0.25 0.25 0 0 1 10.25 26L11.75 26A0.25 0.25 0 0 1 12 26.25L12 26.75A0.25 0.25 0 0 1 11.75 27L11.25 27A0.25 0.25 0 0 0 11 27.25L11 27.75A0.25 0.25 0 0 0 11.25 28L11.75 28A0.25 0.25 0 0 1 12 28.25L12 28.75A0.25 0.25 0 0 0 12.25 29L12.75 29A0.25 0.25 0 0 0 13 28.75L13 28.25A0.25 0.25 0 0 1 13.25 28L13.75 28A0.25 0.25 0 0 0 14 27.75L14 27.25A0.25 0.25 0 0 1 14.25 27L14.75 27A0.25 0.25 0 0 1 15 27.25L15 27.75A0.25 0.25 0 0 0 15.25 28L16.75 28A0.25 0.25 0 0 1 17 28.25L17 28.75A0.25 0.25 0 0 1 16.75 29L16.25 29A0.25 0.25 0 0 0 16 29.25L16 29.75A0.25 0.25 0 0 1 15.75 30L13.25 30A0.25 0.25 0 0 0 13 30.25L13 30.75A0.25 0.25 0 0 0 13.25 31L15.75 31A0.25 0.25 0 0 1 16 31.25L16 31.75A0.25 0.25 0 0 1 15.75 32L13.25 32A0.25 0.25 0 0 0 13 32.25L13 32.75A0.25 0.25 0 0 0 13.25 33L15.75 33A0.25 0.25 0 0 1 16 33.25L16 33.75A0.25 0.25 0 0 0 16.25 34L16.75 34A0.25 0.25 0 0 1 17 34.25L17 34.75A0.25 0.25 0 0 0 17.25 35L17.75 35A0.25 0.25 0 0 0 18 34.75L18 34.25A0.25 0.25 0 0 1 18.25 34L19.75 34A0.25 0.25 0 0 1 20 34.25L20 34.75A0.25 0.25 0 0 0 20.25 35L20.75 35A0.25 0.25 0 0 0 21 34.75L21 33.25A0.25 0.25 0 0 1 21.25 33L21.75 33A0.25 0.25 0 0 0 22 32.75L22 32.25A0.25 0.25 0 0 0 21.75 32L21.25 32A0.25 0.25 0 0 0 21 32.25L21 32.75A0.25 0.25 0 0 1 20.75 33L20.25 33A0.25 0.25 0 0 1 20 32.75L20 32.25A0.25 0.25 0 0 0 19.75 32L18.25 32A0.25 0.25 0 0 1 18 31.75L18 31.25A0.25 0.25 0 0 0 17.75 31L17.25 31A0.25 0.25 0 0 1 17 30.75L17 29.25A0.25 0.25 0 0 1 17.25 29L18.75 29A0.25 0.25 0 0 0 19 28.75L19 28.25A0.25 0.25 0 0 0 18.75 28L17.25 28A0.25 0.25 0 0 1 17 27.75L17 27.25A0.25 0.25 0 0 0 16.75 27L15.25 27A0.25 0.25 0 0 1 15 26.75L15 25.25A0.25 0.25 0 0 0 14.75 25L14.25 25A0.25 0.25 0 0 1 14 24.75L14 22.25A0.25 0.25 0 0 1 14.25 22L14.75 22A0.25 0.25 0 0 1 15 22.25L15 23.75A0.25 0.25 0 0 0 15.25 24L15.75 24A0.25 0.25 0 0 1 16 24.25L16 25.75A0.25 0.25 0 0 0 16.25 26L16.75 26A0.25 0.25 0 0 0 17 25.75L17 25.25A0.25 0.25 0 0 1 17.25 25L17.75 25A0.25 0.25 0 0 0 18 24.75L18 24.25A0.25 0.25 0 0 1 18.25 24L18.75 24A0.25 0.25 0 0 0 19 23.75L19 23.25A0.25 0.25 0 0 0 18.75 23L18.25 23A0.25 0.25 0 0 1 18 22.75L18 22.25A0.25 0.25 0 0 1 18.25 22L19.75 22A0.25 0.25 0 0 0 20 21.75L20 21.25A0.25 0.25 0 0 1 20.25 21L20.75 21A0.25 0.25 0 0 1 21 21.25L21 21.75A0.25 0.25 0 0 0 21.25 22L21.75 22A0.25 0.25 0 0 0 22 21.75L22 21.25A0.25 0.25 0 0 0 21.75 21L21.25 21A0.25 0.25 0 0 1 21 20.75L21 18.25A0.25 0.25 0 0 0 20.75 18L20.25 18A0.25 0.25 0 0 0 20 18.25L20 18.75A0.25 0.25 0 0 1 19.75 19L18.25 19A0.25 0.25 0 0 1 18 18.75L18 18.25A0.25 0.25 0 0 0 17.75 18L16.25 18A0.25 0.25 0 0 1 16 17.75L16 17.25A0.25 0.25 0 0 1 16.25 17L16.75 17A0.25 0.25 0 0 0 17 16.75L17 16.25A0.25 0.25 0 0 0 16.75 16L16.25 16A0.25 0.25 0 0 0 16 16.25ZM5 18.25L5 18.75A0.25 0.25 0 0 0 5.25 19L6.75 19A0.25 0.25 0 0 0 7 18.75L7 18.25A0.25 0.25 0 0 0 6.75 18L5.25 18A0.25 0.25 0 0 0 5 18.25ZM22 19.25L22 19.75A0.25 0.25 0 0 0 22.25 20L24.75 20A0.25 0.25 0 0 0 25 19.75L25 19.25A0.25 0.25 0 0 0 24.75 19L22.25 19A0.25 0.25 0 0 0 22 19.25ZM17 20.25L17 20.75A0.25 0.25 0 0 0 17.25 21L17.75 21A0.25 0.25 0 0 0 18 20.75L18 20.25A0.25 0.25 0 0 0 17.75 20L17.25 20A0.25 0.25 0 0 0 17 20.25ZM37 20.25L37 21.75A0.25 0.25 0 0 0 37.25 22L37.75 22A0.25 0.25 0 0 0 38 21.75L38 20.25A0.25 0.25 0 0 0 37.75 20L37.25 20A0.25 0.25 0 0 0 37 20.25ZM34 21.25L34 21.75A0.25 0.25 0 0 0 34.25 22L34.75 22A0.25 0.25 0 0 0 35 21.75L35 21.25A0.25 0.25 0 0 0 34.75 21L34.25 21A0.25 0.25 0 0 0 34 21.25ZM39 21.25L39 21.75A0.25 0.25 0 0 0 39.25 22L39.75 22A0.25 0.25 0 0 0 40 21.75L40 21.25A0.25 0.25 0 0 0 39.75 21L39.25 21A0.25 0.25 0 0 0 39 21.25ZM16 22.25L16 23.75A0.25 0.25 0 0 0 16.25 24L17.75 24A0.25 0.25 0 0 0 18 23.75L18 23.25A0.25 0.25 0 0 0 17.75 23L17.25 23A0.25 0.25 0 0 1 17 22.75L17 22.25A0.25 0.25 0 0 0 16.75 22L16.25 22A0.25 0.25 0 0 0 16 22.25ZM6 23.25L6 23.75A0.25 0.25 0 0 0 6.25 24L7.75 24A0.25 0.25 0 0 0 8 23.75L8 23.25A0.25 0.25 0 0 0 7.75 23L6.25 23A0.25 0.25 0 0 0 6 23.25ZM35 24.25L35 24.75A0.25 0.25 0 0 1 34.75 25L34.25 25A0.25 0.25 0 0 0 34 25.25L34 26.75A0.25 0.25 0 0 0 34.25 27L34.75 27A0.25 0.25 0 0 1 35 27.25L35 29.75A0.25 0.25 0 0 0 35.25 30L35.75 30A0.25 0.25 0 0 0 36 29.75L36 27.25A0.25 0.25 0 0 1 36.25 27L36.75 27A0.25 0.25 0 0 0 37 26.75L37 26.25A0.25 0.25 0 0 0 36.75 26L35.25 26A0.25 0.25 0 0 1 35 25.75L35 25.25A0.25 0.25 0 0 1 35.25 25L35.75 25A0.25 0.25 0 0 0 36 24.75L36 24.25A0.25 0.25 0 0 0 35.75 24L35.25 24A0.25 0.25 0 0 0 35 24.25ZM8 25.25L8 25.75A0.25 0.25 0 0 0 8.25 26L8.75 26A0.25 0.25 0 0 0 9 25.75L9 25.25A0.25 0.25 0 0 0 8.75 25L8.25 25A0.25 0.25 0 0 0 8 25.25ZM13 26.25L13 26.75A0.25 0.25 0 0 1 12.75 27L12.25 27A0.25 0.25 0 0 0 12 27.25L12 27.75A0.25 0.25 0 0 0 12.25 28L12.75 28A0.25 0.25 0 0 0 13 27.75L13 27.25A0.25 0.25 0 0 1 13.25 27L13.75 27A0.25 0.25 0 0 0 14 26.75L14 26.25A0.25 0.25 0 0 0 13.75 26L13.25 26A0.25 0.25 0 0 0 13 26.25ZM37 28.25L37 28.75A0.25 0.25 0 0 0 37.25 29L37.75 29A0.25 0.25 0 0 0 38 28.75L38 28.25A0.25 0.25 0 0 0 37.75 28L37.25 28A0.25 0.25 0 0 0 37 28.25ZM40 28.25L40 28.75A0.25 0.25 0 0 0 40.25 29L40.75 29A0.25 0.25 0 0 0 41 28.75L41 28.25A0.25 0.25 0 0 0 40.75 28L40.25 28A0.25 0.25 0 0 0 40 28.25ZM10 29.25L10 29.75A0.25 0.25 0 0 0 10.25 30L10.75 30A0.25 0.25 0 0 0 11 29.75L11 29.25A0.25 0.25 0 0 0 10.75 29L10.25 29A0.25 0.25 0 0 0 10 29.25ZM24 29.25L24 30.75A0.25 0.25 0 0 1 23.75 31L23.25 31A0.25 0.25 0 0 1 23 30.75L23 30.25A0.25 0.25 0 0 0 22.75 30L21.25 30A0.25 0.25 0 0 0 21 30.25L21 30.75A0.25 0.25 0 0 0 21.25 31L22.75 31A0.25 0.25 0 0 1 23 31.25L23 31.75A0.25 0.25 0 0 0 23.25 32L23.75 32A0.25 0.25 0 0 1 24 32.25L24 32.75A0.25 0.25 0 0 0 24.25 33L24.75 33A0.25 0.25 0 0 0 25 32.75L25 29.25A0.25 0.25 0 0 0 24.75 29L24.25 29A0.25 0.25 0 0 0 24 29.25ZM0 30.25L0 30.75A0.25 0.25 0 0 0 0.25 31L0.75 31A0.25 0.25 0 0 0 1 30.75L1 30.25A0.25 0.25 0 0 0 0.75 30L0.25 30A0.25 0.25 0 0 0 0 30.25ZM11 31.25L11 31.75A0.25 0.25 0 0 0 11.25 32L11.75 32A0.25 0.25 0 0 0 12 31.75L12 31.25A0.25 0.25 0 0 0 11.75 31L11.25 31A0.25 0.25 0 0 0 11 31.25ZM40 31.25L40 31.75A0.25 0.25 0 0 0 40.25 32L40.75 32A0.25 0.25 0 0 0 41 31.75L41 31.25A0.25 0.25 0 0 0 40.75 31L40.25 31A0.25 0.25 0 0 0 40 31.25ZM26 32.25L26 33.75A0.25 0.25 0 0 0 26.25 34L26.75 34A0.25 0.25 0 0 0 27 33.75L27 32.25A0.25 0.25 0 0 0 26.75 32L26.25 32A0.25 0.25 0 0 0 26 32.25ZM17 33.25L17 33.75A0.25 0.25 0 0 0 17.25 34L17.75 34A0.25 0.25 0 0 0 18 33.75L18 33.25A0.25 0.25 0 0 0 17.75 33L17.25 33A0.25 0.25 0 0 0 17 33.25ZM33 33.25L33 35.75A0.25 0.25 0 0 0 33.25 36L35.75 36A0.25 0.25 0 0 0 36 35.75L36 33.25A0.25 0.25 0 0 0 35.75 33L33.25 33A0.25 0.25 0 0 0 33 33.25ZM14 34.25L14 34.75A0.25 0.25 0 0 1 13.75 35L13.25 35A0.25 0.25 0 0 0 13 35.25L13 35.75A0.25 0.25 0 0 0 13.25 36L14.75 36A0.25 0.25 0 0 0 15 35.75L15 34.25A0.25 0.25 0 0 0 14.75 34L14.25 34A0.25 0.25 0 0 0 14 34.25ZM34 34.25L34 34.75A0.25 0.25 0 0 0 34.25 35L34.75 35A0.25 0.25 0 0 0 35 34.75L35 34.25A0.25 0.25 0 0 0 34.75 34L34.25 34A0.25 0.25 0 0 0 34 34.25ZM37 36.25L37 36.75A0.25 0.25 0 0 0 37.25 37L37.75 37A0.25 0.25 0 0 0 38 36.75L38 36.25A0.25 0.25 0 0 0 37.75 36L37.25 36A0.25 0.25 0 0 0 37 36.25ZM9 37.25L9 37.75A0.25 0.25 0 0 0 9.25 38L9.75 38A0.25 0.25 0 0 1 10 38.25L10 38.75A0.25 0.25 0 0 0 10.25 39L10.75 39A0.25 0.25 0 0 0 11 38.75L11 37.25A0.25 0.25 0 0 0 10.75 37L9.25 37A0.25 0.25 0 0 0 9 37.25ZM33 39.25L33 39.75A0.25 0.25 0 0 1 32.75 40L30.25 40A0.25 0.25 0 0 0 30 40.25L30 40.75A0.25 0.25 0 0 0 30.25 41L32.75 41A0.25 0.25 0 0 0 33 40.75L33 40.25A0.25 0.25 0 0 1 33.25 40L35.75 40A0.25 0.25 0 0 1 36 40.25L36 40.75A0.25 0.25 0 0 0 36.25 41L36.75 41A0.25 0.25 0 0 0 37 40.75L37 40.25A0.25 0.25 0 0 1 37.25 40L37.75 40A0.25 0.25 0 0 0 38 39.75L38 39.25A0.25 0.25 0 0 0 37.75 39L37.25 39A0.25 0.25 0 0 0 37 39.25L37 39.75A0.25 0.25 0 0 1 36.75 40L36.25 40A0.25 0.25 0 0 1 36 39.75L36 39.25A0.25 0.25 0 0 0 35.75 39L33.25 39A0.25 0.25 0 0 0 33 39.25ZM28 40.25L28 40.75A0.25 0.25 0 0 0 28.25 41L28.75 41A0.25 0.25 0 0 0 29 40.75L29 40.25A0.25 0.25 0 0 0 28.75 40L28.25 40A0.25 0.25 0 0 0 28 40.25ZM0 0.25L0 6.75A0.25 0.25 0 0 0 0.25 7L6.75 7A0.25 0.25 0 0 0 7 6.75L7 0.25A0.25 0.25 0 0 0 6.75 0L0.25 0A0.25 0.25 0 0 0 0 0.25ZM1 1.25L1 5.75A0.25 0.25 0 0 0 1.25 6L5.75 6A0.25 0.25 0 0 0 6 5.75L6 1.25A0.25 0.25 0 0 0 5.75 1L1.25 1A0.25 0.25 0 0 0 1 1.25ZM2 2.25L2 4.75A0.25 0.25 0 0 0 2.25 5L4.75 5A0.25 0.25 0 0 0 5 4.75L5 2.25A0.25 0.25 0 0 0 4.75 2L2.25 2A0.25 0.25 0 0 0 2 2.25ZM34 0.25L34 6.75A0.25 0.25 0 0 0 34.25 7L40.75 7A0.25 0.25 0 0 0 41 6.75L41 0.25A0.25 0.25 0 0 0 40.75 0L34.25 0A0.25 0.25 0 0 0 34 0.25ZM35 1.25L35 5.75A0.25 0.25 0 0 0 35.25 6L39.75 6A0.25 0.25 0 0 0 40 5.75L40 1.25A0.25 0.25 0 0 0 39.75 1L35.25 1A0.25 0.25 0 0 0 35 1.25ZM36 2.25L36 4.75A0.25 0.25 0 0 0 36.25 5L38.75 5A0.25 0.25 0 0 0 39 4.75L39 2.25A0.25 0.25 0 0 0 38.75 2L36.25 2A0.25 0.25 0 0 0 36 2.25ZM0 34.25L0 40.75A0.25 0.25 0 0 0 0.25 41L6.75 41A0.25 0.25 0 0 0 7 40.75L7 34.25A0.25 0.25 0 0 0 6.75 34L0.25 34A0.25 0.25 0 0 0 0 34.25ZM1 35.25L1 39.75A0.25 0.25 0 0 0 1.25 40L5.75 40A0.25 0.25 0 0 0 6 39.75L6 35.25A0.25 0.25 0 0 0 5.75 35L1.25 35A0.25 0.25 0 0 0 1 35.25ZM2 36.25L2 38.75A0.25 0.25 0 0 0 2.25 39L4.75 39A0.25 0.25 0 0 0 5 38.75L5 36.25A0.25 0.25 0 0 0 4.75 36L2.25 36A0.25 0.25 0 0 0 2 36.25Z" fill="#000000"/></g></g></svg>
